<?xml version="1.0" standalone="no"?>
<!DOCTYPE svg PUBLIC "-//W3C//DTD SVG 20010904//EN"
 "http://www.w3.org/TR/2001/REC-SVG-20010904/DTD/svg10.dtd">
<svg version="1.0" xmlns="http://www.w3.org/2000/svg"
 width="900.000000pt" height="900.000000pt" viewBox="0 0 900.000000 900.000000"
 preserveAspectRatio="xMidYMid meet">

<g transform="translate(0.000000,900.000000) scale(0.100000,-0.100000)"
fill="#000000" stroke="none">
<path d="M4230 8989 c-1331 -80 -2546 -739 -3345 -1814 -1072 -1441 -1175
-3407 -260 -4955 585 -989 1534 -1723 2636 -2040 78 -22 143 -40 145 -40 2 0
4 670 4 1490 l0 1490 -465 0 -465 0 0 695 0 695 465 0 465 0 0 399 c0 219 5
456 10 527 48 592 215 1030 509 1336 335 350 777 519 1459 560 328 19 778 -16
1125 -89 l77 -16 0 -629 0 -628 -42 7 c-24 4 -194 8 -378 8 -283 0 -351 -3
-435 -18 -365 -68 -556 -231 -640 -549 -38 -144 -45 -238 -45 -585 l0 -323
730 0 c717 0 730 0 730 -20 0 -17 -232 -1292 -245 -1347 l-5 -23 -605 0 -605
0 0 -1541 0 -1541 28 6 c15 3 63 10 107 17 647 91 1349 375 1906 770 1102 781
1787 1995 1890 3349 15 193 6 634 -15 820 -63 532 -200 1001 -431 1475 -350
718 -884 1328 -1550 1772 -809 539 -1780 800 -2755 742z"/>
</g>
</svg>
